<?xml version="1.0" standalone="no"?><!DOCTYPE svg PUBLIC "-//W3C//DTD SVG 1.1//EN" "http://www.w3.org/Graphics/SVG/1.1/DTD/svg11.dtd"><svg t="1522046462767" class="icon" style="" viewBox="0 0 1024 1024" version="1.1" xmlns="http://www.w3.org/2000/svg" p-id="8678" xmlns:xlink="http://www.w3.org/1999/xlink" width="48" height="48"><defs><style type="text/css"></style></defs><path d="M911.99616 253.295919H111.173469c-8.449102 0-15.285584-6.836482-15.285584-15.285584s6.836482-15.285584 15.285584-15.285584h800.822691c8.449102 0 15.285584 6.836482 15.285584 15.285584s-6.836482 15.285584-15.285584 15.285584zM911.99616 527.412546H111.173469c-8.449102 0-15.285584-6.836482-15.285584-15.285584s6.836482-15.285584 15.285584-15.285584h800.822691c8.449102 0 15.285584 6.836482 15.285584 15.285584 0.001024 8.448078-6.836482 15.285584-15.285584 15.285584zM911.99616 801.513814H111.173469c-8.449102 0-15.285584-6.836482-15.285584-15.285584s6.836482-15.285584 15.285584-15.285584h800.822691c8.449102 0 15.285584 6.836482 15.285584 15.285584s-6.836482 15.285584-15.285584 15.285584z" p-id="8679" fill="#8a8a8a"></path></svg>