<?xml version="1.0" standalone="no"?><!DOCTYPE svg PUBLIC "-//W3C//DTD SVG 1.1//EN" "http://www.w3.org/Graphics/SVG/1.1/DTD/svg11.dtd"><svg t="1523329028635" class="icon" style="" viewBox="0 0 1024 1024" version="1.1" xmlns="http://www.w3.org/2000/svg" p-id="10321" xmlns:xlink="http://www.w3.org/1999/xlink" width="48" height="48"><defs><style type="text/css"></style></defs><path d="M765.747191 747.906871c-16.919345 0-32.692586 4.964058-45.978171 13.482059L411.612639 761.38893c-13.285584-8.518001-29.058826-13.482059-45.978171-13.482059-0.048095 0-0.094144 0.00307-0.14224 0.004093l-6.835685-62.492286 472.706065 0 129.429815-436.82588L298.022581 248.592798l-78.308507-111.868857L66.179258 136.723941l0 51.16531 126.895085 0 66.281589 94.686523 58.34585 393.836787-1.193175 0.130983 8.908904 81.446987c-26.891464 14.408151-45.230134 42.780339-45.230134 75.363432 0 47.115064 38.331004 85.446068 85.446068 85.446068s85.446068-38.331004 85.446068-85.446068c0-10.945283-2.091638-21.405519-5.858428-31.03176l240.936421 0c-3.76679 9.626241-5.858428 20.086477-5.858428 31.03176 0 47.115064 38.331004 85.446068 85.446068 85.446068s85.446068-38.331004 85.446068-85.446068S812.862255 747.906871 765.747191 747.906871zM365.634468 877.866758c-24.545022 0-44.51382-19.968797-44.51382-44.51382s19.968797-44.51382 44.51382-44.51382 44.51382 19.968797 44.51382 44.51382S390.178467 877.866758 365.634468 877.866758zM765.747191 877.866758c-24.545022 0-44.51382-19.968797-44.51382-44.51382 0-12.059664 4.827959-23.006993 12.642948-31.03176l3.158946 0 0-2.947122c7.757684-6.564509 17.776875-10.534937 28.711925-10.534937 24.545022 0 44.51382 19.968797 44.51382 44.51382S790.292214 877.866758 765.747191 877.866758z" p-id="10322" fill="#FF3D00"></path></svg>