<?xml version="1.0" standalone="no"?><!DOCTYPE svg PUBLIC "-//W3C//DTD SVG 1.1//EN" "http://www.w3.org/Graphics/SVG/1.1/DTD/svg11.dtd"><svg t="1523331233121" class="icon" style="" viewBox="0 0 1024 1024" version="1.1" xmlns="http://www.w3.org/2000/svg" p-id="13150" xmlns:xlink="http://www.w3.org/1999/xlink" width="48" height="48"><defs><style type="text/css"></style></defs><path d="M995.106743 233.749943c-6.928457-9.034971-17.678629-14.321371-29.035886-14.321371L199.071086 219.428571 166.857143 65.642057C163.322514 48.714971 148.394057 36.571429 131.072 36.571429L36.571429 36.571429C16.3584 36.571429 0 52.928 0 73.142857s16.356571 36.571429 36.571429 36.571429l64.786286 0 139.428571 665.786514c3.536457 16.928914 18.464914 29.070629 35.785143 29.070629L827.428571 804.571429c20.214857 0 36.571429-16.356571 36.571429-36.571429s-16.356571-36.571429-36.571429-36.571429l-521.142857 0-22.965029-109.714286L877.714286 621.714286c16.535771 0 31.036343-11.106743 35.320686-27.106743l88.356571-329.142857C1004.357486 254.500571 1002.000457 242.750171 995.106743 233.749943zM849.678629 548.571429 268.000914 548.571429l-53.6064-256 704 0L849.678629 548.571429z" p-id="13151" fill="#1296db"></path><path d="M347.428571 841.142857c-50.428343 0-91.428571 41.000229-91.428571 91.428571s41.000229 91.428571 91.428571 91.428571 91.428571-41.000229 91.428571-91.428571S397.856914 841.142857 347.428571 841.142857zM347.428571 969.142857c-20.178286 0-36.571429-16.393143-36.571429-36.571429s16.393143-36.571429 36.571429-36.571429 36.571429 16.393143 36.571429 36.571429S367.606857 969.142857 347.428571 969.142857z" p-id="13152" fill="#1296db"></path><path d="M749.714286 841.142857c-50.428343 0-91.428571 41.000229-91.428571 91.428571s41.000229 91.428571 91.428571 91.428571 91.428571-41.000229 91.428571-91.428571S800.142629 841.142857 749.714286 841.142857zM749.714286 969.142857c-20.178286 0-36.571429-16.393143-36.571429-36.571429s16.393143-36.571429 36.571429-36.571429 36.571429 16.393143 36.571429 36.571429S769.892571 969.142857 749.714286 969.142857z" p-id="13153" fill="#1296db"></path></svg>