<?xml version="1.0" standalone="no"?><!DOCTYPE svg PUBLIC "-//W3C//DTD SVG 1.1//EN" "http://www.w3.org/Graphics/SVG/1.1/DTD/svg11.dtd"><svg t="1523330869309" class="icon" style="" viewBox="0 0 1024 1024" version="1.1" xmlns="http://www.w3.org/2000/svg" p-id="11414" xmlns:xlink="http://www.w3.org/1999/xlink" width="48" height="48"><defs><style type="text/css"></style></defs><path d="M349.534791 63.36619 158.087505 63.36619c-52.782134 0-95.723132 42.940998-95.723132 95.723132L62.364373 350.536608c0 52.782134 42.940998 95.723132 95.723132 95.723132L349.534791 446.25974c52.782134 0 95.723132-42.940998 95.723132-95.723132L445.257923 159.090345C445.257923 106.307188 402.316925 63.36619 349.534791 63.36619zM381.442502 350.536608c0 17.593703-14.314007 31.907711-31.907711 31.907711L158.087505 382.444319c-17.593703 0-31.907711-14.314007-31.907711-31.907711L126.179794 159.090345c0-17.593703 14.314007-31.907711 31.907711-31.907711L349.534791 127.182634c17.593703 0 31.907711 14.314007 31.907711 31.907711L381.442502 350.536608z" p-id="11415" fill="#1296db"></path><path d="M349.534791 510.076184 158.087505 510.076184c-52.782134 0-95.723132 42.940998-95.723132 95.723132l0 191.446263c0 52.782134 42.940998 95.723132 95.723132 95.723132L349.534791 892.968711c52.782134 0 95.723132-42.940998 95.723132-95.723132L445.257923 605.799316C445.257923 553.017182 402.316925 510.076184 349.534791 510.076184zM381.442502 797.245579c0 17.593703-14.314007 31.908734-31.907711 31.908734L158.087505 829.154313c-17.593703 0-31.907711-14.314007-31.907711-31.908734L126.179794 605.799316c0-17.593703 14.314007-31.908734 31.907711-31.908734L349.534791 573.890582c17.593703 0 31.907711 14.314007 31.907711 31.908734L381.442502 797.245579z" p-id="11416" fill="#1296db"></path><path d="M604.796476 447.104991l191.447287 0c52.782134 0 95.723132-42.940998 95.723132-95.723132L891.966894 159.934572c0-52.782134-42.940998-95.723132-95.723132-95.723132L604.796476 64.211441c-52.782134 0-95.723132 42.940998-95.723132 95.723132l0 191.446263C509.073344 404.163993 552.014342 447.104991 604.796476 447.104991zM572.888765 159.934572c0-17.593703 14.314007-31.907711 31.908734-31.907711l191.447287 0c17.593703 0 31.908734 14.314007 31.908734 31.907711l0 191.446263c0 17.593703-14.314007 31.907711-31.908734 31.907711L604.796476 383.288546c-17.593703 0-31.908734-14.314007-31.908734-31.907711L572.887742 159.934572z" p-id="11417" fill="#1296db"></path><path d="M700.520631 605.799316c-52.782134 0-95.723132 42.940998-95.723132 95.723132 0 17.622356 14.285355 31.907711 31.907711 31.907711s31.907711-14.285355 31.907711-31.907711c0-17.593703 14.314007-31.908734 31.908734-31.908734 17.622356 0 31.907711-14.285355 31.907711-31.907711S718.142987 605.799316 700.520631 605.799316z" p-id="11418" fill="#1296db"></path><path d="M927.746796 883.623879l-71.232344-71.232344c22.314215-31.304983 35.453467-69.581752 35.453467-110.869087 0-105.564267-85.881996-191.446263-191.446263-191.446263s-191.447287 85.881996-191.447287 191.446263 85.883019 191.446263 191.447287 191.446263c41.287335 0 79.56308-13.138228 110.869087-35.452443l71.232344 71.232344c12.409634 12.409634 32.715099 12.409634 45.124733 0l0 0C940.155407 916.338978 940.155407 896.033513 927.746796 883.623879zM572.888765 701.522448c0-70.375837 57.256028-127.631866 127.632889-127.631866s127.631866 57.255005 127.631866 127.631866-57.255005 127.631866-127.631866 127.631866S572.888765 771.899308 572.888765 701.522448z" p-id="11419" fill="#1296db"></path></svg>